<svg xmlns="http://www.w3.org/2000/svg" width="414" height="861.728" viewBox="0 0 414 861.728"><g id="Group_3" data-name="Group 3" transform="translate(0 -726)"><path id="Path_1" fill="#5c8d89" d="M34.841.18,64.08,50.617H34.841Z" data-name="Path 1" transform="translate(-34.841 725.82)"/><path id="Path_2" fill="#5c8d89" fill-rule="evenodd" d="M95.1,53l-23.92-41.43-8.643,14.97L77.738,53ZM73.281,53H47.265l13.043-22.59Z" data-name="Path 2" transform="translate(-44.245 723.234)"/><g id="Forest" transform="translate(293.207 1433.46)"><path id="Path_10" fill="#a6d6c4" d="M142.058.54l10.984,19.026h-21.97Z" data-name="Path 10" transform="translate(-42.519)"/><path id="Path_13" fill="#a6d6c4" d="M110.058,54.54l10.984,19.026H99.073Z" data-name="Path 13" transform="translate(-32.459 -16.976)"/><path id="Path_19" fill="#a6d6c4" d="M109.745,54.54V73.566H99.073Z" data-name="Path 19" transform="translate(11.048 -16.976)"/></g><g id="Forest-2" data-name="Forest" transform="translate(159.786 1536.569)"><path id="Path_15" fill="#a6d6c4" d="M76.994.54l9.92,17.183H67.073Z" data-name="Path 15" transform="translate(-24.372 0)"/><path id="Path_17" fill="#a6d6c4" d="M108.994,54.54l9.92,17.183H99.073Z" data-name="Path 17" transform="translate(-36.558 -20.564)"/><path id="Path_18" fill="#a6d6c4" d="M44.994,54.54l9.92,17.183H35.073Z" data-name="Path 18" transform="translate(-12.186 -20.564)"/></g></g></svg>